#!OML:ASF H:\MichaelJackson\Top Level 1\Subject 1\Session 1\male.ASF
:FULLY-SPECIFIED
:DEGREES
1864
root 0.790909 16.5381 28.4939 -338.81 48.591 6.44597
lowerback 3.42147 -0.585698 -2.86744
upperback 1.12855 -0.868594 -0.164425
thorax -0.719312 -0.432019 1.47301
lowerneck -7.87711 -5.52311 -1.89732
upperneck 10.0197 -7.41163 2.14778
head 4.4409 -3.58399 0.505802
rclavicle -1.8487e-014 1.47101e-014
rhumerus -35.5294 14.0144 -91.5355
rradius 84.524
rwrist -15.4236
rhand -26.4288 -34.5804
rfingers 7.12502
rthumb 0.131604 -64.5601
lclavicle -1.8487e-014 1.47101e-014
lhumerus -55.228 -19.5754 103.94
lradius 83.6826
lwrist 27.3568
lhand -16.5066 23.5544
lfingers 7.12502
lthumb 9.71141 53.3105
rfemur -47.6564 -8.37426 20.775
rtibia 49.6631
rfoot -15.6132 -1.7787
rtoes 8.32026
lfemur -22.0971 -2.41929 -23.5081
ltibia 45.6517
lfoot -27.3135 -4.52295
ltoes 22.0641
1865
root 0.811984 16.5577 28.5381 -339.394 48.4455 5.84056
lowerback 3.55628 -0.514964 -2.56587
upperback 1.19635 -0.766057 -0.0344069
thorax -0.732307 -0.381222 1.43453
lowerneck -7.83527 -5.49995 -1.90239
upperneck 9.93801 -7.38094 2.16656
head 4.40917 -3.56929 0.516836
rclavicle 2.46493e-014 -1.43125e-014
rhumerus -35.7883 13.9818 -91.5855
rradius 83.0646
rwrist -14.5492
rhand -26.5533 -34.3305
rfingers 7.12502
rthumb 0.0113963 -64.3102
lclavicle 2.46493e-014 -1.43125e-014
lhumerus -54.9008 -19.4918 103.782
lradius 85.3569
lwrist 27.0131
lhand -14.2403 22.3224
lfingers 7.12502
lthumb 11.8974 51.9644
rfemur -47.0349 -8.16053 21.1717
rtibia 49.1634
rfoot -15.713 -1.53895
rtoes 8.76567
lfemur -23.1472 -1.84195 -23.1541
ltibia 47.9917
lfoot -25.8558 -4.5667
ltoes 21.2519
1866
root 0.834233 16.5798 28.5853 -340.021 48.2493 5.34233
lowerback 3.78366 -0.486584 -2.42768
upperback 1.29109 -0.726477 0.0974456
thorax -0.764012 -0.361693 1.49263
lowerneck -7.78871 -5.41292 -1.85674
upperneck 9.89094 -7.26252 2.10786
head 4.38067 -3.51368 0.501671
rclavicle 4.67144e-015 4.77083e-015
rhumerus -36.0086 14.0621 -91.6355
rradius 81.5976
rwrist -13.7425
rhand -26.4039 -34.2577
rfingers 7.12502
rthumb 0.155659 -64.2373
lclavicle 4.67144e-015 4.77083e-015
lhumerus -54.6209 -19.3837 103.622
lradius 87.2293
lwrist 26.9342
lhand -12.3934 22.3641
lfingers 7.12502
lthumb 13.6779 51.8946
rfemur -46.2355 -7.95215 21.4835
rtibia 48.5999
rfoot -15.8602 -1.28027
rtoes 9.59888
lfemur -24.229 -1.02114 -22.9018
ltibia 50.5666
lfoot -24.1325 -4.81598
ltoes 20.6241
1867
root 0.857065 16.6 28.6336 -340.683 48.1391 4.73593
lowerback 3.93237 -0.460825 -2.1041
upperback 1.38502 -0.681025 0.201777
thorax -0.755483 -0.339383 1.41723
lowerneck -7.7431 -5.37481 -1.80082
upperneck 9.90531 -7.21813 2.10316
head 4.37441 -3.4902 0.495421
rclavicle 3.67752e-015 4.37326e-015
rhumerus -36.2414 14.1102 -91.7652
rradius 80.1291
rwrist -13.2022
rhand -26.7346 -34.0778
rfingers 7.12502
rthumb -0.163751 -64.0575
lclavicle 3.67752e-015 4.37326e-015
lhumerus -54.4391 -19.473 103.472
lradius 89.2882
lwrist 27.2474
lhand -11.2703 22.4497
lfingers 7.12502
lthumb 14.7601 51.9041
rfemur -45.4551 -7.93678 21.9908
rtibia 47.9682
rfoot -15.9607 -0.974398
rtoes 10.2253
lfemur -25.5761 0.074931 -22.6136
ltibia 53.3717
lfoot -22.1228 -4.6377
ltoes 18.0496
1868
root 0.879591 16.6241 28.6825 -341.362 48.1693 4.08037
lowerback 4.07153 -0.484791 -1.81967
upperback 1.46286 -0.701408 0.399851
thorax -0.753647 -0.349799 1.4628
lowerneck -7.73093 -5.31895 -1.78005
upperneck 9.97007 -7.13976 2.04185
head 4.38766 -3.45371 0.47796
rclavicle 1.27222e-014 2.8625e-014
rhumerus -36.5173 14.3162 -91.8407
rradius 78.6892
rwrist -12.8092
rhand -27.3679 -34.0445
rfingers 7.12502
rthumb -0.775456 -64.0228
lclavicle 1.27222e-014 2.8625e-014
lhumerus -54.2226 -19.5849 103.442
lradius 91.3834
lwrist 27.7265
lhand -10.652 22.5229
lfingers 7.12502
lthumb 15.3557 51.9327
rfemur -44.6593 -8.00478 22.5719
rtibia 47.2875
rfoot -16.0744 -0.684231
rtoes 11.5342
lfemur -27.0829 0.952726 -22.1888
ltibia 56.3092
lfoot -19.6348 -4.95883
ltoes 18.7305
1869
root 0.904661 16.6477 28.7328 -342.108 48.2111 3.40193
lowerback 4.21705 -0.5099 -1.45337
upperback 1.55593 -0.719255 0.567028
thorax -0.741335 -0.358634 1.43061
lowerneck -7.74895 -5.28299 -1.80943
upperneck 10.1167 -7.08979 2.03989
head 4.43564 -3.42851 0.482437
rclavicle -6.61953e-014 1.86858e-014
rhumerus -36.7337 14.2803 -91.8661
rradius 77.3201
rwrist -11.7995
rhand -26.6531 -34.5145
rfingers 7.12502
rthumb -0.0850814 -64.4942
lclavicle -6.61953e-014 1.86858e-014
lhumerus -54.001 -19.865 103.419
lradius 93.5272
lwrist 28.5871
lhand -10.6705 22.8114
lfingers 7.12502
lthumb 15.3379 52.2225
rfemur -43.7719 -8.17273 23.2025
rtibia 46.5547
rfoot -16.1252 -0.411866
rtoes 12.139
lfemur -28.6544 1.83605 -21.7388
ltibia 59.3181
lfoot -16.8286 -5.38003
ltoes 20.5858
1870
root 0.925453 16.6666 28.7808 -342.796 48.4601 2.68936
lowerback 4.35821 -0.584569 -1.06375
upperback 1.59127 -0.800628 0.793169
thorax -0.783269 -0.398364 1.44935
lowerneck -7.77444 -5.27838 -1.85401
upperneck 10.3009 -7.07682 2.00571
head 4.4965 -3.42345 0.476394
rclavicle 6.75868e-014 -2.50469e-014
rhumerus -37.0469 14.2926 -91.8939
rradius 76.0472
rwrist -11.1685
rhand -26.8823 -34.9058
rfingers 7.12502
rthumb -0.30643 -64.8853
lclavicle 6.75868e-014 -2.50469e-014
lhumerus -53.811 -20.2862 103.512
lradius 95.771
lwrist 29.9586
lhand -11.8405 23.011
lfingers 7.12502
lthumb 14.2107 52.5049
rfemur -43.0008 -8.44083 23.8979
rtibia 45.8074
rfoot -16.1472 -0.168451
rtoes 13.3752
lfemur -30.4545 2.59719 -21.2372
ltibia 62.3185
lfoot -13.7916 -5.41782
ltoes 21.3693
1871
root 0.948333 16.6934 28.8292 -343.494 48.5552 1.92917
lowerback 4.4381 -0.581931 -0.651554
upperback 1.6191 -0.777285 0.971562
thorax -0.803269 -0.385816 1.40073
lowerneck -7.83084 -5.29541 -1.78604
upperneck 10.5198 -7.10186 1.92892
head 4.56834 -3.43461 0.435775
rclavicle 9.44227e-015 -2.38542e-014
rhumerus -37.3761 14.2032 -91.9342
rradius 74.8895
rwrist -10.7872
rhand -26.829 -35.3991
rfingers 7.12502
rthumb -0.254941 -65.3787
lclavicle 9.44227e-015 -2.38542e-014
lhumerus -53.5661 -20.8758 103.528
lradius 98.0313
lwrist 31.2761
lhand -13.9418 23.6939
lfingers 7.12502
lthumb 12.1853 53.319
rfemur -42.2319 -8.57454 24.5669
rtibia 45.0417
rfoot -16.2256 0.107019
rtoes 14.4815
lfemur -32.3579 3.3428 -20.7251
ltibia 65.2566
lfoot -10.3839 -5.69018
ltoes 25.1133
1872
root 0.969996 16.7133 28.8744 -344.181 48.6176 1.10597
lowerback 4.49082 -0.578407 -0.207122
upperback 1.61563 -0.7503 1.16912
thorax -0.840212 -0.371245 1.35339
lowerneck -7.90878 -5.30567 -1.84962
upperneck 10.7466 -7.11268 1.94738
head 4.65428 -3.43809 0.444974
rclavicle 5.82439e-014 1.51076e-014
rhumerus -37.7243 14.1682 -91.9591
rradius 73.8344
rwrist -10.5295
rhand -26.7626 -36.0396
rfingers 7.12502
rthumb -0.190787 -66.0193
lclavicle 5.82439e-014 1.51076e-014
lhumerus -53.2261 -21.4772 103.505
lradius 100.341
lwrist 32.4488
lhand -14.0397 23.5593
lfingers 7.12502
lthumb 12.0908 53.19
rfemur -41.5758 -8.75555 25.309
rtibia 44.2926
rfoot -16.2588 0.422864
rtoes 15.1849
lfemur -34.3217 4.08963 -20.2122
ltibia 68.0841
lfoot -6.95376 -5.85135
ltoes 30.2121
1873
root 0.990983 16.7308 28.9146 -344.739 48.4258 0.245779
lowerback 4.42479 -0.471444 0.260643
upperback 1.5544 -0.585879 1.31982
thorax -0.873467 -0.288263 1.23689
lowerneck -7.95345 -5.33681 -1.88194
upperneck 10.9218 -7.156 1.97402
head 4.7187 -3.45658 0.451299
rclavicle -4.96962e-014 -1.19271e-014
rhumerus -38.1355 14.0938 -92.0083
rradius 72.9152
rwrist -10.4997
rhand -26.7112 -36.6768
rfingers 7.12502
rthumb -0.141204 -66.6565
lclavicle -4.96962e-014 -1.19271e-014
lhumerus -52.9078 -22.1557 103.411
lradius 102.702
lwrist 33.5683
lhand -15.7393 24.0921
lfingers 7.12502
lthumb 10.4516 53.8123
rfemur -41.143 -8.72225 26.0318
rtibia 43.5399
rfoot -16.1677 0.8487
rtoes 16.3597
lfemur -36.4217 4.95982 -19.7978
ltibia 70.7778
lfoot -3.71526 -5.61651
ltoes 36.292
1874
root 1.01278 16.7478 28.9628 -345.466 48.3725 -0.459
lowerback 4.58158 -0.443648 0.579615
upperback 1.57984 -0.530045 1.46476
thorax -0.937499 -0.259478 1.20517
lowerneck -7.98239 -5.32989 -1.85291
upperneck 11.0261 -7.15055 1.96393
head 4.75416 -3.45188 0.441589
rclavicle -4.28381e-014 -7.95139e-016
rhumerus -38.5664 14.0986 -92.1043
rradius 72.1418
rwrist -10.7134
rhand -26.8186 -37.38
rfingers 7.12502
rthumb -0.244861 -67.3596
lclavicle -4.28381e-014 -7.95139e-016
lhumerus -52.4621 -22.6216 103.213
lradius 104.996
lwrist 34.3773
lhand -16.5853 24.2108
lfingers 7.12502
lthumb 9.63552 53.9704
rfemur -40.3399 -8.87479 26.6768
rtibia 42.8293
rfoot -16.1684 1.10682
rtoes 16.6501
lfemur -38.1101 5.73817 -19.4412
ltibia 73.2824
lfoot -1.1707 -5.162
ltoes 42.045
1875
root 1.03431 16.7712 29.0103 -346.114 48.1875 -0.990806
lowerback 4.80149 -0.362346 0.804535
upperback 1.61273 -0.406419 1.52872
thorax -1.0296 -0.197068 1.13963
lowerneck -7.96796 -5.34555 -1.81397
upperneck 11.04 -7.18178 2.00258
head 4.75667 -3.46315 0.445308
rclavicle -1.37161e-014 -3.22031e-014
rhumerus -39.0393 13.9357 -92.2528
rradius 71.4861
rwrist -10.885
rhand -26.8606 -38.171
rfingers 7.12502
rthumb -0.285454 -68.1505
lclavicle -1.37161e-014 -3.22031e-014
lhumerus -51.979 -23.2312 102.909
lradius 107.296
lwrist 34.9498
lhand -16.8749 24.3623
lfingers 7.12502
lthumb 9.35605 54.1347
rfemur -39.5164 -8.88076 27.1209
rtibia 42.169
rfoot -16.0974 1.38422
rtoes 17.5293
lfemur -39.6769 6.58847 -19.2601
ltibia 75.5784
lfoot 0.391327 -5.04901
ltoes 44.1047
1876
root 1.05797 16.7893 29.0574 -346.782 48.0084 -1.47216
lowerback 5.06753 -0.275574 1.03886
upperback 1.65686 -0.273109 1.58053
thorax -1.13538 -0.129884 1.05531
lowerneck -7.86786 -5.37304 -1.80842
upperneck 10.953 -7.22899 2.08476
head 4.71699 -3.48286 0.470495
rclavicle 3.03147e-014 1.59028e-014
rhumerus -39.5359 13.6844 -92.3309
rradius 70.9591
rwrist -11.0962
rhand -26.3325 -38.8369
rfingers 7.12502
rthumb 0.22458 -68.8165
lclavicle 3.03147e-014 1.59028e-014
lhumerus -51.4581 -23.8298 102.532
lradius 109.594
lwrist 35.2814
lhand -16.449 23.946
lfingers 7.12502
lthumb 9.767 53.6995
rfemur -38.666 -8.88906 27.5002
rtibia 41.5738
rfoot -16.0841 1.6008
rtoes 17.956
lfemur -41.0736 7.27552 -19.0792
ltibia 77.5998
lfoot 1.11361 -5.08314
ltoes 44.2345
